# 3ds Max Wavefront OBJ Exporter v0.97b - (c)2007 guruware
# File Created: 22.11.2018 04:13:10

#
# object keyboard_1
#

v  -23.000000 0.000000 5.383156
v  23.000000 0.000000 5.383144
v  -23.000000 0.000000 -5.676579
v  23.000000 0.000000 -5.676580
v  -21.999989 1.500000 6.383144
v  23.000000 1.500000 5.383144
v  -23.000000 1.500000 -5.676579
v  22.008469 1.500000 -6.806391
v  -18.437321 0.000000 -7.273917
v  18.437336 0.000000 -7.273918
v  18.435642 0.000000 6.383144
v  -18.435631 0.000000 6.383144
v  -18.435631 1.500000 6.383144
v  18.435642 1.500000 6.383144
v  18.437336 1.500000 -7.273918
v  -18.437321 1.500000 -7.273917
v  -11.461662 0.000000 8.347925
v  11.461672 1.500000 8.347916
v  -14.780590 0.000000 -7.657694
v  -7.390301 0.000000 -8.175367
v  0.000000 0.000000 -8.347923
v  7.390299 0.000000 -8.175365
v  14.780595 0.000000 -7.657693
v  14.779239 1.500000 6.383144
v  7.389624 1.500000 6.383144
v  0.000000 1.500000 6.383144
v  -7.389618 1.500000 6.383144
v  -14.779228 1.500000 6.383144
v  14.780598 1.500000 -7.657694
v  7.390299 1.500000 -8.175365
v  0.000000 1.500000 -8.347923
v  -7.390289 1.500000 -8.175366
v  -14.780590 1.500000 -7.657693
v  -4.594219 0.000000 8.347925
v  0.000000 0.000000 8.347925
v  4.594223 0.000000 8.347916
v  11.461672 0.000000 8.347916
v  4.594223 1.500000 8.347916
v  0.000000 1.500000 8.347925
v  -4.594219 1.500000 8.347925
v  -11.461662 1.500000 8.347925
v  -21.999989 0.000000 6.383144
v  22.000000 0.000000 6.383156
v  -22.008461 0.000000 -6.806390
v  22.008469 0.000000 -6.806391
v  -23.000000 1.500000 5.383156
v  22.000000 1.500000 6.383156
v  -22.008461 1.500000 -6.806390
v  23.000000 1.500000 -5.676580
v  -22.555550 0.000000 6.272034
v  -22.888889 0.000000 5.938705
v  22.888889 0.000000 5.938705
v  22.555561 0.000000 6.272034
v  -22.889820 0.000000 -6.246557
v  -22.559319 0.000000 -6.623160
v  22.559319 0.000000 -6.623164
v  22.889830 0.000000 -6.246559
v  -22.888889 1.500000 5.938705
v  -22.555550 1.500000 6.272034
v  22.555561 1.500000 6.272034
v  22.888889 1.500000 5.938705
v  -22.559319 1.500000 -6.623160
v  -22.889820 1.500000 -6.246557
v  22.889830 1.500000 -6.246559
v  22.559319 1.500000 -6.623164
v  22.559069 1.500000 -5.830946
v  22.007919 1.500000 -6.023896
v  22.555811 1.500000 5.480465
v  22.000549 1.500000 5.602116
v  -22.555809 1.500000 5.480465
v  -22.000542 1.500000 5.602116
v  -22.559059 1.500000 -5.830944
v  -22.007912 1.500000 -6.023896
# 73 vertices

vn 0.000000 1.000000 -0.000000
vn 0.000000 1.000000 -0.000000
vn 0.000000 1.000000 -0.000000
vn 0.000000 1.000000 -0.000000
vn 0.000001 0.000000 1.000000
vn 0.000001 0.000000 1.000000
vn 0.000000 0.000000 1.000000
vn 0.000000 0.000000 1.000000
vn 0.995134 0.000000 0.098536
vn 0.995447 0.000000 -0.095322
vn 0.995447 0.000000 -0.095322
vn 0.995134 0.000000 0.098536
vn 0.000000 0.000000 -1.000000
vn 0.000000 0.000000 -1.000000
vn 0.046622 0.000000 -0.998913
vn 0.046622 0.000000 -0.998913
vn -0.995446 0.000000 -0.095330
vn -0.995133 0.000000 0.098538
vn -0.995133 0.000000 0.098538
vn -0.995446 0.000000 -0.095330
vn 0.000000 1.000000 -0.000000
vn 0.000000 1.000000 -0.000000
vn 0.000000 1.000000 -0.000000
vn 0.000000 1.000000 -0.000000
vn 0.000000 1.000000 -0.000000
vn 0.000000 1.000000 -0.000000
vn 0.000000 1.000000 -0.000000
vn 0.098543 0.000000 0.995133
vn 0.098543 0.000000 0.995133
vn 0.136873 0.000000 0.990589
vn 0.136873 0.000000 0.990589
vn -0.098535 0.000000 0.995134
vn -0.098535 0.000000 0.995134
vn -0.136875 0.000000 0.990588
vn -0.136875 0.000000 0.990588
vn -0.223736 0.000000 -0.974650
vn -0.223736 0.000000 -0.974650
vn -0.117103 0.000000 -0.993120
vn -0.117103 0.000000 -0.993120
vn 0.223736 0.000000 -0.974650
vn 0.223736 0.000000 -0.974650
vn 0.117103 0.000000 -0.993120
vn 0.117103 0.000000 -0.993120
vn 0.136873 0.000000 0.990589
vn 0.136873 0.000000 0.990589
vn 0.136875 0.000000 0.990588
vn 0.136875 0.000000 0.990588
vn 0.000000 1.000000 -0.000000
vn 0.000000 1.000000 -0.000000
vn 0.000000 1.000000 -0.000000
vn 0.000000 1.000000 -0.000000
vn -0.136875 0.000000 0.990588
vn -0.136875 0.000000 0.990588
vn -0.136875 0.000000 0.990588
vn -0.136875 0.000000 0.990588
vn 0.000000 1.000000 -0.000000
vn 0.000000 1.000000 -0.000000
vn 0.000000 1.000000 -0.000000
vn 0.000000 1.000000 -0.000000
vn 0.000000 1.000000 -0.000000
vn 0.000000 1.000000 -0.000000
vn 0.000000 1.000000 -0.000000
vn 0.000000 1.000000 -0.000000
vn 0.000000 1.000000 -0.000000
vn 0.000000 1.000000 -0.000000
vn 0.000000 1.000000 -0.000000
vn 0.000000 1.000000 -0.000000
vn 0.000000 1.000000 -0.000000
vn 0.000000 1.000000 -0.000000
vn 0.000000 1.000000 -0.000000
vn 0.000000 1.000000 -0.000000
vn 0.000000 1.000000 -0.000000
vn 0.000000 1.000000 -0.000000
vn 0.000000 1.000000 -0.000000
vn 0.000000 1.000000 -0.000000
vn 0.136875 0.000000 0.990588
vn 0.136875 0.000000 0.990588
vn 0.000001 0.000000 1.000000
vn 0.000001 0.000000 1.000000
vn 0.000001 0.000000 1.000000
vn 0.000001 0.000000 1.000000
vn 0.000001 0.000000 1.000000
vn 0.000001 0.000000 1.000000
vn -0.136875 0.000000 0.990588
vn -0.136875 0.000000 0.990588
vn 0.000000 0.000000 1.000000
vn 0.000000 0.000000 1.000000
vn -0.117103 0.000000 -0.993120
vn -0.117103 0.000000 -0.993120
vn -0.087140 0.000001 -0.996196
vn -0.087140 0.000001 -0.996196
vn -0.087140 0.000001 -0.996196
vn -0.087140 0.000001 -0.996196
vn -0.046622 0.000001 -0.998913
vn -0.046622 0.000001 -0.998913
vn -0.046622 0.000001 -0.998913
vn -0.046622 0.000001 -0.998913
vn 0.000000 0.000000 -1.000000
vn 0.000000 0.000000 -1.000000
vn 0.117103 0.000000 -0.993120
vn 0.117103 0.000000 -0.993120
vn 0.087140 -0.000001 -0.996196
vn 0.087140 -0.000001 -0.996196
vn 0.087140 -0.000001 -0.996196
vn 0.087140 -0.000001 -0.996196
vn 0.046622 0.000000 -0.998913
vn 0.046622 0.000000 -0.998913
vn 0.000000 1.000000 -0.000000
vn 0.000000 1.000000 -0.000000
vn 0.000000 1.000000 -0.000000
vn 0.000000 1.000000 -0.000000
vn 0.000000 1.000000 -0.000000
vn 0.000000 1.000000 -0.000000
vn 0.000000 1.000000 -0.000000
vn 0.000000 1.000000 -0.000000
vn 0.000000 1.000000 -0.000000
vn 0.000000 1.000000 -0.000000
vn 0.000000 1.000000 -0.000000
vn 0.000000 1.000000 -0.000000
vn 0.000000 1.000000 -0.000000
vn 0.000000 1.000000 -0.000000
vn 0.000000 1.000000 -0.000000
vn 0.000000 1.000000 -0.000000
vn 0.000000 1.000000 -0.000000
vn 0.000000 1.000000 -0.000000
vn 0.471864 0.000000 0.881671
vn 0.098543 0.000000 0.995133
vn 0.098543 0.000000 0.995133
vn 0.471864 0.000000 0.881671
vn -0.471850 0.000000 0.881679
vn -0.098535 0.000000 0.995134
vn -0.098535 0.000000 0.995134
vn -0.471850 0.000000 0.881679
vn 0.897989 0.000000 -0.440018
vn 0.995447 0.000000 -0.095322
vn 0.995447 0.000000 -0.095322
vn 0.897989 0.000000 -0.440018
vn -0.552874 0.000000 -0.833265
vn -0.223736 0.000000 -0.974650
vn -0.223736 0.000000 -0.974650
vn -0.552874 0.000000 -0.833265
vn 0.881676 0.000000 0.471856
vn 0.471864 0.000000 0.881671
vn 0.471864 0.000000 0.881671
vn 0.881676 0.000000 0.471856
vn 0.995134 0.000000 0.098536
vn 0.881676 0.000000 0.471856
vn 0.881676 0.000000 0.471856
vn 0.995134 0.000000 0.098536
vn -0.881671 0.000000 0.471865
vn -0.471850 0.000000 0.881679
vn -0.471850 0.000000 0.881679
vn -0.881671 0.000000 0.471865
vn -0.995133 0.000000 0.098538
vn -0.881671 0.000000 0.471865
vn -0.881671 0.000000 0.471865
vn -0.995133 0.000000 0.098538
vn 0.552869 0.000000 -0.833268
vn 0.897989 0.000000 -0.440018
vn 0.897989 0.000000 -0.440018
vn 0.552869 0.000000 -0.833268
vn 0.223736 0.000000 -0.974650
vn 0.552869 0.000000 -0.833268
vn 0.552869 0.000000 -0.833268
vn 0.223736 0.000000 -0.974650
vn -0.897988 0.000000 -0.440020
vn -0.552874 0.000000 -0.833265
vn -0.552874 0.000000 -0.833265
vn -0.897988 0.000000 -0.440020
vn -0.995446 0.000000 -0.095330
vn -0.897988 0.000000 -0.440020
vn -0.897988 0.000000 -0.440020
vn -0.995446 0.000000 -0.095330
vn 0.000000 1.000000 -0.000000
vn 0.000000 1.000000 -0.000000
vn 0.000000 1.000000 -0.000000
vn 0.000000 1.000000 -0.000000
vn 0.000000 1.000000 -0.000000
vn 0.000000 1.000000 -0.000000
vn 0.000000 1.000000 -0.000000
vn 0.000000 1.000000 -0.000000
vn 0.000000 1.000000 -0.000000
vn 0.000000 1.000000 -0.000000
vn 0.000000 1.000000 -0.000000
vn 0.000000 1.000000 -0.000000
vn 0.000000 1.000000 -0.000000
vn 0.000000 1.000000 -0.000000
vn 0.000000 1.000000 -0.000000
vn 0.000000 1.000000 -0.000000
vn 0.000000 1.000000 -0.000000
vn 0.000000 1.000000 -0.000000
vn 0.000000 1.000000 -0.000000
vn 0.000000 1.000000 -0.000000
vn 0.000000 1.000000 -0.000000
vn 0.000000 1.000000 -0.000000
vn 0.000000 1.000000 -0.000000
vn 0.000000 1.000000 -0.000000
vn 0.000000 1.000000 -0.000000
vn 0.000000 1.000000 -0.000000
vn 0.000000 1.000000 -0.000000
vn 0.000000 1.000000 -0.000000
vn 0.000000 1.000000 -0.000000
vn 0.000000 1.000000 -0.000000
vn 0.000000 1.000000 -0.000000
vn 0.000000 1.000000 -0.000000
vn 0.000000 1.000000 -0.000000
vn 0.000000 1.000000 -0.000000
vn 0.000000 1.000000 -0.000000
vn 0.000000 1.000000 -0.000000
vn 0.000000 1.000000 -0.000000
vn 0.000000 1.000000 -0.000000
vn 0.000000 1.000000 -0.000000
vn 0.000000 1.000000 -0.000000
vn 0.000000 1.000000 -0.000000
vn 0.000000 1.000000 -0.000000
vn 0.000000 1.000000 -0.000000
vn 0.000000 1.000000 -0.000000
vn 0.000000 1.000000 -0.000000
vn 0.000000 1.000000 -0.000000
vn 0.000000 1.000000 -0.000000
vn 0.000000 1.000000 -0.000000
vn 0.000000 1.000000 -0.000000
vn 0.000000 1.000000 -0.000000
vn 0.000000 1.000000 -0.000000
vn 0.000000 1.000000 -0.000000
vn 0.000000 1.000000 -0.000000
vn 0.000000 1.000000 -0.000000
vn 0.000000 1.000000 -0.000000
vn 0.000000 1.000000 -0.000000
vn 0.000000 1.000000 -0.000000
vn 0.000000 1.000000 -0.000000
vn 0.000000 1.000000 -0.000000
vn 0.000000 1.000000 -0.000000
vn 0.000000 1.000000 -0.000000
# 234 vertex normals

vt 0.929134 0.334225 0.000000
vt 0.929134 0.392111 0.000000
vt 0.813740 0.392111 0.000000
vt 0.815091 0.334219 0.000000
vt 0.977538 0.218584 0.000000
vt 0.977538 0.182595 0.000000
vt 0.989288 0.182595 0.000000
vt 0.989288 0.218584 0.000000
vt 0.549680 1.000000 0.000000
vt 0.463041 1.000000 0.000000
vt 0.463041 0.988250 0.000000
vt 0.549680 0.988250 0.000000
vt 0.334968 1.000000 0.000000
vt 0.277060 1.000000 0.000000
vt 0.277060 0.988250 0.000000
vt 0.334968 0.988250 0.000000
vt 0.091077 1.000000 0.000000
vt 0.004438 1.000000 0.000000
vt 0.004438 0.988250 0.000000
vt 0.091077 0.988250 0.000000
vt 0.132311 1.000000 0.000000
vt 0.104098 1.000000 0.000000
vt 0.977538 0.036052 0.000000
vt 0.977538 0.008131 0.000000
vt 0.929134 0.536526 0.000000
vt 0.929134 0.564447 0.000000
vt 0.989288 0.008131 0.000000
vt 0.989288 0.036052 0.000000
vt 0.923017 0.564451 0.000000
vt 0.825815 0.219709 0.000000
vt 0.104098 0.988250 0.000000
vt 0.132311 0.988250 0.000000
vt 0.989288 0.329138 0.000000
vt 0.827250 0.215394 0.000000
vt 0.989288 0.357060 0.000000
vt 0.833456 0.215395 0.000000
vt 0.421808 0.988250 0.000000
vt 0.450022 0.988250 0.000000
vt 0.450022 1.000000 0.000000
vt 0.421808 1.000000 0.000000
vt 0.161114 1.000000 0.000000
vt 0.831944 0.219713 0.000000
vt 0.929134 0.449997 0.000000
vt 0.944526 0.392111 0.000000
vt 0.944526 0.428099 0.000000
vt 0.929134 0.507884 0.000000
vt 0.822152 0.536540 0.000000
vt 0.819146 0.507895 0.000000
vt 0.815091 0.450002 0.000000
vt 0.819146 0.276328 0.000000
vt 0.822152 0.247682 0.000000
vt 0.929134 0.247696 0.000000
vt 0.929134 0.276339 0.000000
vt 0.944526 0.302327 0.000000
vt 0.944526 0.356122 0.000000
vt 0.944526 0.481896 0.000000
vt 0.161114 0.988250 0.000000
vt 0.219150 1.000000 0.000000
vt 0.219150 0.988250 0.000000
vt 0.393004 0.988250 0.000000
vt 0.393004 1.000000 0.000000
vt 0.928265 0.568799 0.000000
vt 0.977538 0.357060 0.000000
vt 0.977538 0.329138 0.000000
vt 0.989288 0.092809 0.000000
vt 0.977538 0.092809 0.000000
vt 0.922064 0.568801 0.000000
vt 0.977538 0.272381 0.000000
vt 0.989288 0.272381 0.000000
vt 0.977538 0.146606 0.000000
vt 0.989288 0.146606 0.000000
vt 0.925654 0.571411 0.000000
vt 0.921301 0.572282 0.000000
vt 0.834665 0.572282 0.000000
vt 0.830200 0.571418 0.000000
vt 0.977538 0.003694 0.000000
vt 0.989288 0.003694 0.000000
vt 0.989288 0.361497 0.000000
vt 0.977538 0.361497 0.000000
vt 0.458494 1.000000 0.000000
vt 0.458494 0.988250 0.000000
vt 0.099549 1.000000 0.000000
vt 0.099549 0.988250 0.000000
vt 0.977538 0.000000 0.000000
vt 0.989288 0.000000 0.000000
vt 0.989288 0.365191 0.000000
vt 0.977538 0.365191 0.000000
vt 0.554119 1.000000 0.000000
vt 0.554119 0.988250 0.000000
vt 0.000000 0.988250 0.000000
vt 0.000000 1.000000 0.000000
vt 0.827250 0.568829 0.000000
vt 0.833456 0.568828 0.000000
vt 0.825815 0.564514 0.000000
vt 0.831944 0.564510 0.000000
vt 0.454569 1.000000 0.000000
vt 0.830200 0.212804 0.000000
vt 0.454569 0.988250 0.000000
vt 0.834665 0.211941 0.000000
vt 0.095625 1.000000 0.000000
vt 0.921301 0.211941 0.000000
vt 0.095625 0.988250 0.000000
vt 0.925654 0.212812 0.000000
vt 0.928265 0.215422 0.000000
vt 0.922064 0.215420 0.000000
vt 0.929134 0.219775 0.000000
vt 0.923017 0.219770 0.000000
# 107 texture coords

g keyboard_1
s 1
f 32/4/1 27/1/2 26/2/3 31/3/4 
f 35/6/5 39/7/6 40/8/7 34/5/8 
f 2/9/9 4/10/10 49/11/11 6/12/12 
f 21/14/13 31/15/14 30/16/15 22/13/16 
f 3/17/17 1/18/18 46/19/19 7/20/20 
f 47/26/21 69/29/22 14/25/23 
f 73/42/24 48/30/25 62/34/26 72/36/27 
f 43/24/28 47/27/29 14/28/30 11/23/31 
f 5/35/32 42/63/33 12/64/34 13/33/35 
f 44/22/36 48/31/37 16/32/38 9/21/39 
f 8/38/40 45/39/41 10/40/42 15/37/43 
f 11/23/44 14/28/45 18/65/46 37/66/47 
f 38/45/48 25/43/49 26/2/50 39/44/51 
f 13/33/52 12/64/53 17/68/54 41/69/55 
f 24/46/56 14/25/57 15/47/58 29/48/59 
f 25/43/60 24/46/61 29/48/62 30/49/63 
f 26/2/64 25/43/65 30/49/66 31/3/67 
f 28/53/68 33/50/69 16/51/70 13/52/71 
f 27/1/72 32/4/73 33/50/74 28/53/75 
f 37/66/76 18/65/77 38/71/78 36/70/79 
f 36/70/80 38/71/81 39/7/82 35/6/83 
f 41/69/84 17/68/85 34/5/86 40/8/87 
f 9/21/88 16/32/89 33/57/90 19/41/91 
f 19/41/92 33/57/93 32/59/94 20/58/95 
f 20/58/96 32/59/97 31/15/98 21/14/99 
f 15/37/100 10/40/101 23/61/102 29/60/103 
f 29/60/104 23/61/105 22/13/106 30/16/107 
f 13/52/108 41/54/109 28/53/110 
f 41/54/111 40/55/112 27/1/113 28/53/114 
f 40/55/115 39/44/116 26/2/117 27/1/118 
f 14/25/119 24/46/120 18/56/121 
f 25/43/122 38/45/123 18/56/124 24/46/125 
f 60/77/126 47/27/127 43/24/128 53/76/129 
f 50/79/130 42/63/131 5/35/132 59/78/133 
f 64/81/134 49/11/135 4/10/136 57/80/137 
f 62/83/138 48/31/139 44/22/140 55/82/141 
f 61/85/142 60/77/143 53/76/144 52/84/145 
f 6/12/146 61/89/147 52/88/148 2/9/149 
f 51/87/150 50/79/151 59/78/152 58/86/153 
f 1/18/154 51/91/155 58/90/156 46/19/157 
f 65/98/158 64/81/159 57/80/160 56/96/161 
f 8/38/162 65/98/163 56/96/164 45/39/165 
f 63/102/166 62/83/167 55/82/168 54/100/169 
f 7/20/170 63/102/171 54/100/172 3/17/173 
f 69/29/174 47/26/175 60/62/176 68/67/177 
f 68/67/178 60/62/179 61/72/180 6/73/181 
f 66/93/182 49/74/183 64/75/184 65/92/185 
f 67/95/186 66/93/187 65/92/188 8/94/189 
f 8/94/190 15/47/191 67/95/192 
f 68/67/193 6/73/194 49/74/195 66/93/196 
f 69/29/197 68/67/198 66/93/199 67/95/200 
f 14/25/201 69/29/202 67/95/203 15/47/204 
f 48/30/205 73/42/206 16/51/207 
f 72/36/208 62/34/209 63/97/210 7/99/211 
f 70/105/212 46/101/213 58/103/214 59/104/215 
f 71/107/216 70/105/217 59/104/218 5/106/219 
f 5/106/220 13/52/221 71/107/222 
f 70/105/223 72/36/224 7/99/225 46/101/226 
f 71/107/227 73/42/228 72/36/229 70/105/230 
f 13/52/231 16/51/232 73/42/233 71/107/234 
# 54 polygons - 6 triangles

