# 3ds Max Wavefront OBJ Exporter v0.97b - (c)2007 guruware
# File Created: 30.11.2018 14:12:23

#
# object keyboard_2
#

v  23.596699 0.547448 7.053600
v  23.611477 1.153457 -6.265657
v  -23.575665 1.153457 -6.265659
v  -23.603163 0.547448 7.053596
v  23.611477 1.793457 -7.772652
v  -23.575665 1.793457 -7.772654
v  -22.033392 0.547448 7.053596
v  -22.006319 1.153457 -6.265659
v  -22.006319 1.793457 -7.772654
v  6.560223 0.547431 7.053969
v  6.579590 1.153457 -6.265659
v  6.579594 1.793457 -7.772652
v  -18.459190 0.519895 7.659173
v  -14.884987 0.500214 8.091741
v  -11.310787 0.488405 8.351301
v  -7.736585 0.484467 8.437851
v  -4.162382 0.488400 8.351394
v  -0.588182 0.500206 8.091928
v  2.986021 0.519883 7.659453
v  3.006355 1.153457 -6.265659
v  -0.566885 1.153457 -6.265659
v  -4.140125 1.153457 -6.265659
v  -7.713365 1.153457 -6.265659
v  -11.286603 1.153457 -6.265659
v  -14.859841 1.153457 -6.265659
v  -18.433083 1.153457 -6.265659
v  3.006355 1.793457 -7.772652
v  -0.566885 1.793457 -7.772652
v  -4.140125 1.793457 -7.772652
v  -7.713363 1.793457 -7.772652
v  -11.286603 1.793457 -7.772652
v  -14.859841 1.793457 -7.772652
v  -18.433083 1.793457 -7.772654
v  23.596701 0.000002 7.053601
v  23.611473 0.000002 -6.265658
v  -23.575665 0.000002 -6.265660
v  -23.603163 0.000002 7.053597
v  23.611473 0.000002 -7.772652
v  -23.575665 0.000002 -7.772654
v  -22.033392 0.000002 7.053597
v  -22.006319 0.000002 -7.772654
v  6.560225 0.000002 7.053969
v  6.579590 0.000002 -7.772653
v  -18.459190 0.000002 7.659173
v  -14.884987 0.000002 8.091741
v  -11.310786 0.000002 8.351301
v  -7.736584 0.000002 8.437851
v  -4.162380 0.000002 8.351394
v  -0.588181 0.000002 8.091928
v  2.986023 0.000002 7.659453
v  3.006353 0.000002 -7.772652
v  -0.566886 0.000002 -7.772653
v  -4.140125 0.000002 -7.772653
v  -7.713365 0.000002 -7.772653
v  -11.286602 0.000002 -7.772654
v  -14.859840 0.000002 -7.772654
v  -18.433083 0.000002 -7.772654
# 57 vertices

vn -0.559120 0.691405 -0.457541
vn -0.749092 0.646147 0.146137
vn 0.000000 0.975120 0.221679
vn 0.000000 0.975120 0.221679
vn 0.000000 0.833935 -0.551862
vn -0.559120 0.691405 -0.457541
vn 0.000000 0.833936 -0.551862
vn 0.000000 0.975120 0.221679
vn 0.000000 0.975120 0.221679
vn 0.000000 0.975120 0.221679
vn -0.000000 0.833936 -0.551862
vn 0.000000 0.833936 -0.551862
vn 0.000000 0.833935 -0.551862
vn 0.000000 0.975120 0.221679
vn -0.000000 0.975120 0.221679
vn -0.000000 0.975120 0.221679
vn -0.000000 0.833936 -0.551862
vn 0.000000 0.833935 -0.551862
vn 0.000000 0.833936 -0.551862
vn 0.000000 0.975120 0.221679
vn 0.000000 0.975120 0.221679
vn 0.000000 0.975120 0.221679
vn 0.000000 0.833935 -0.551862
vn 0.000000 0.833936 -0.551862
vn 0.000000 0.833936 -0.551862
vn -0.000000 0.975120 0.221679
vn 0.000000 0.975120 0.221679
vn 0.000000 0.975120 0.221679
vn 0.000000 0.833936 -0.551862
vn 0.000000 0.833936 -0.551862
vn -0.000000 0.833936 -0.551862
vn 0.000000 0.975120 0.221679
vn -0.000000 0.975120 0.221679
vn -0.000000 0.975120 0.221679
vn 0.000000 0.833936 -0.551862
vn -0.000000 0.833936 -0.551862
vn 0.000000 0.975120 0.221679
vn 0.000000 0.833935 -0.551862
vn 0.000000 0.833935 -0.551862
vn 0.000000 0.833935 -0.551862
vn 0.000000 0.975120 0.221679
vn 0.000000 0.975120 0.221679
vn -0.000000 0.975120 0.221679
vn 0.000000 0.833936 -0.551862
vn 0.000000 0.833935 -0.551862
vn 0.000000 0.833935 -0.551862
vn 0.000000 0.975120 0.221679
vn -0.000000 0.975120 0.221679
vn 0.000000 0.975120 0.221679
vn 0.000000 0.833936 -0.551862
vn 0.000000 0.833936 -0.551862
vn 0.000000 0.833936 -0.551862
vn -0.000000 0.975120 0.221679
vn 0.000000 0.975120 0.221679
vn -0.083819 0.000001 0.996481
vn -0.056131 0.710676 0.701277
vn -0.580440 0.562790 0.588521
vn -0.580440 0.562790 0.588521
vn -0.707836 0.000001 0.706377
vn -0.083819 0.000001 0.996481
vn -0.999999 0.000000 -0.001032
vn -0.749092 0.646147 0.146137
vn -0.559120 0.691405 -0.457541
vn -0.559120 0.691405 -0.457541
vn -0.707107 0.000000 -0.707107
vn -0.999999 0.000000 -0.001032
vn 0.707106 -0.000002 -0.707107
vn 0.559121 0.691404 -0.457542
vn 0.749311 0.645655 0.147186
vn 0.749311 0.645655 0.147186
vn 1.000000 -0.000003 0.000555
vn 0.707106 -0.000002 -0.707107
vn -0.143639 0.000000 0.989630
vn -0.100199 0.685592 0.721057
vn -0.056131 0.710676 0.701277
vn -0.056131 0.710676 0.701277
vn -0.083819 0.000001 0.996481
vn -0.143639 0.000000 0.989630
vn -0.707107 0.000000 -0.707107
vn -0.559120 0.691405 -0.457541
vn 0.000000 0.833935 -0.551862
vn 0.000000 0.833935 -0.551862
vn 0.000000 0.000000 -1.000000
vn -0.707107 0.000000 -0.707107
vn 0.000000 0.000000 -1.000000
vn 0.000000 0.833935 -0.551862
vn -0.000000 0.833936 -0.551862
vn -0.000000 0.833936 -0.551862
vn -0.000000 0.000001 -1.000000
vn 0.000000 0.000000 -1.000000
vn -0.143639 0.000000 0.989630
vn -0.096317 -0.000000 0.995351
vn -0.067187 0.685443 0.725020
vn -0.067187 0.685443 0.725020
vn -0.100199 0.685592 0.721057
vn -0.143639 0.000000 0.989630
vn -0.096317 -0.000000 0.995351
vn -0.048333 -0.000000 0.998831
vn -0.033715 0.685352 0.727431
vn -0.033715 0.685352 0.727431
vn -0.067187 0.685443 0.725020
vn -0.096317 -0.000000 0.995351
vn -0.048333 -0.000000 0.998831
vn -0.000013 0.000000 1.000000
vn -0.000009 0.685322 0.728240
vn -0.000009 0.685322 0.728240
vn -0.033715 0.685352 0.727431
vn -0.048333 -0.000000 0.998831
vn -0.000013 0.000000 1.000000
vn 0.048307 0.000000 0.998833
vn 0.033696 0.685352 0.727432
vn 0.033696 0.685352 0.727432
vn -0.000009 0.685322 0.728240
vn -0.000013 0.000000 1.000000
vn 0.048307 0.000000 0.998833
vn 0.096291 0.000000 0.995353
vn 0.067169 0.685443 0.725021
vn 0.067169 0.685443 0.725021
vn 0.033696 0.685352 0.727432
vn 0.048307 0.000000 0.998833
vn 0.096291 0.000000 0.995353
vn 0.143614 0.000001 0.989634
vn 0.100181 0.685592 0.721060
vn 0.100181 0.685592 0.721060
vn 0.067169 0.685443 0.725021
vn 0.096291 0.000000 0.995353
vn 0.083818 0.000000 0.996481
vn 0.056130 0.710670 0.701283
vn 0.100181 0.685592 0.721060
vn 0.100181 0.685592 0.721060
vn 0.143614 0.000001 0.989634
vn 0.083818 0.000000 0.996481
vn 0.000000 0.000000 -1.000000
vn 0.000000 0.000001 -1.000000
vn 0.000000 0.833936 -0.551862
vn 0.000000 0.833936 -0.551862
vn 0.000000 0.833935 -0.551862
vn 0.000000 0.000000 -1.000000
vn 0.000000 0.000001 -1.000000
vn -0.000000 0.000001 -1.000000
vn 0.000000 0.833936 -0.551862
vn 0.000000 0.833936 -0.551862
vn 0.000000 0.833936 -0.551862
vn 0.000000 0.000001 -1.000000
vn -0.000000 0.000001 -1.000000
vn -0.000000 0.000001 -1.000000
vn -0.000000 0.833936 -0.551862
vn -0.000000 0.833936 -0.551862
vn 0.000000 0.833936 -0.551862
vn -0.000000 0.000001 -1.000000
vn -0.000000 0.000001 -1.000000
vn 0.000000 0.000001 -1.000000
vn 0.000000 0.833936 -0.551862
vn 0.000000 0.833936 -0.551862
vn -0.000000 0.833936 -0.551862
vn -0.000000 0.000001 -1.000000
vn 0.000000 0.000001 -1.000000
vn 0.000000 0.000001 -1.000000
vn 0.000000 0.833936 -0.551862
vn 0.000000 0.833936 -0.551862
vn 0.000000 0.833936 -0.551862
vn 0.000000 0.000001 -1.000000
vn 0.000000 0.000001 -1.000000
vn 0.000000 0.000000 -1.000000
vn 0.000000 0.833935 -0.551862
vn 0.000000 0.833935 -0.551862
vn 0.000000 0.833936 -0.551862
vn 0.000000 0.000001 -1.000000
vn 0.000000 0.000000 -1.000000
vn 0.000000 0.833935 -0.551862
vn 0.000000 0.833935 -0.551862
vn 0.000000 0.833935 -0.551862
vn 0.000000 0.000000 -1.000000
vn 0.000000 0.000000 -1.000000
vn 0.000000 0.975120 0.221679
vn -0.749092 0.646147 0.146137
vn -0.580440 0.562790 0.588521
vn -0.580440 0.562790 0.588521
vn -0.056131 0.710676 0.701277
vn 0.000000 0.975120 0.221679
vn 0.000000 0.975120 0.221679
vn 0.000000 0.975120 0.221679
vn -0.033715 0.685352 0.727431
vn -0.033715 0.685352 0.727431
vn -0.000009 0.685322 0.728240
vn 0.000000 0.975120 0.221679
vn 0.000000 0.975120 0.221679
vn 0.100181 0.685592 0.721060
vn 0.056130 0.710670 0.701283
vn 0.056130 0.710670 0.701283
vn -0.000000 0.975120 0.221679
vn 0.000000 0.975120 0.221679
vn 0.000000 0.975120 0.221679
vn 0.067169 0.685443 0.725021
vn 0.100181 0.685592 0.721060
vn 0.100181 0.685592 0.721060
vn 0.000000 0.975120 0.221679
vn 0.000000 0.975120 0.221679
vn -0.000000 0.975120 0.221679
vn 0.033696 0.685352 0.727432
vn 0.067169 0.685443 0.725021
vn 0.067169 0.685443 0.725021
vn 0.000000 0.975120 0.221679
vn -0.000000 0.975120 0.221679
vn -0.000000 0.975120 0.221679
vn 0.000000 0.975120 0.221679
vn -0.000009 0.685322 0.728240
vn -0.000009 0.685322 0.728240
vn 0.033696 0.685352 0.727432
vn -0.000000 0.975120 0.221679
vn 0.000000 0.975120 0.221679
vn 0.000000 0.975120 0.221679
vn -0.056131 0.710676 0.701277
vn -0.056131 0.710676 0.701277
vn -0.100199 0.685592 0.721057
vn 0.000000 0.975120 0.221679
vn -0.000000 0.975120 0.221679
vn 0.000000 0.975120 0.221679
vn -0.100199 0.685592 0.721057
vn -0.100199 0.685592 0.721057
vn -0.067187 0.685443 0.725020
vn -0.000000 0.975120 0.221679
vn 0.000000 0.975120 0.221679
vn -0.000000 0.975120 0.221679
vn -0.067187 0.685443 0.725020
vn -0.067187 0.685443 0.725020
vn -0.033715 0.685352 0.727431
vn 0.000000 0.975120 0.221679
vn 1.000000 -0.000003 0.000555
vn 0.749311 0.645655 0.147186
vn 0.579428 0.562941 0.589373
vn 0.579428 0.562941 0.589373
vn 0.706723 0.000003 0.707491
vn 1.000000 -0.000003 0.000555
vn -0.999999 0.000000 -0.001032
vn -0.707836 0.000001 0.706377
vn -0.580440 0.562790 0.588521
vn -0.580440 0.562790 0.588521
vn -0.749092 0.646147 0.146137
vn -0.999999 0.000000 -0.001032
vn -0.000000 0.833936 -0.551862
vn -0.000000 0.975120 0.221679
vn 0.749311 0.645655 0.147186
vn 0.749311 0.645655 0.147186
vn 0.559121 0.691404 -0.457542
vn -0.000000 0.833936 -0.551862
vn -0.000000 0.000001 -1.000000
vn -0.000000 0.833936 -0.551862
vn 0.559121 0.691404 -0.457542
vn 0.559121 0.691404 -0.457542
vn 0.707106 -0.000002 -0.707107
vn -0.000000 0.000001 -1.000000
vn 0.706723 0.000003 0.707491
vn 0.579428 0.562941 0.589373
vn 0.056130 0.710670 0.701283
vn 0.056130 0.710670 0.701283
vn 0.083818 0.000000 0.996481
vn 0.706723 0.000003 0.707491
vn -0.000000 0.975120 0.221679
vn 0.056130 0.710670 0.701283
vn 0.579428 0.562941 0.589373
vn 0.579428 0.562941 0.589373
vn 0.749311 0.645655 0.147186
vn -0.000000 0.975120 0.221679
# 264 vertex normals

vt 0.735677 0.469719 0.000000
vt 0.861514 0.467887 0.000000
vt 0.861388 0.910990 0.000000
vt 0.735129 0.909809 0.000000
vt 0.876928 0.469122 0.000000
vt 0.876914 0.909475 0.000000
vt 0.734971 0.895188 0.000000
vt 0.860906 0.896149 0.000000
vt 0.876225 0.895164 0.000000
vt 0.735292 0.628174 0.000000
vt 0.859810 0.628026 0.000000
vt 0.875066 0.628277 0.000000
vt 0.730236 0.861920 0.000000
vt 0.726494 0.828620 0.000000
vt 0.724159 0.795311 0.000000
vt 0.723367 0.761994 0.000000
vt 0.724159 0.728664 0.000000
vt 0.726525 0.695302 0.000000
vt 0.730379 0.661859 0.000000
vt 0.859956 0.661327 0.000000
vt 0.860148 0.694778 0.000000
vt 0.860298 0.728259 0.000000
vt 0.860380 0.761753 0.000000
vt 0.860396 0.795264 0.000000
vt 0.860388 0.828802 0.000000
vt 0.860457 0.862408 0.000000
vt 0.875208 0.661456 0.000000
vt 0.875409 0.694813 0.000000
vt 0.875573 0.728253 0.000000
vt 0.875658 0.761726 0.000000
vt 0.875670 0.795200 0.000000
vt 0.875646 0.828643 0.000000
vt 0.875706 0.862005 0.000000
vt 0.735234 0.464625 0.000000
vt 0.859988 0.457125 0.000000
vt 0.859788 0.921714 0.000000
vt 0.730041 0.909999 0.000000
vt 0.893726 0.469614 0.000000
vt 0.873203 0.925391 0.000000
vt 0.729834 0.895571 0.000000
vt 0.893014 0.894405 0.000000
vt 0.730169 0.627928 0.000000
vt 0.891837 0.628624 0.000000
vt 0.725414 0.862414 0.000000
vt 0.721833 0.828992 0.000000
vt 0.719596 0.795503 0.000000
vt 0.718837 0.761995 0.000000
vt 0.719596 0.728472 0.000000
vt 0.721864 0.694927 0.000000
vt 0.725545 0.661362 0.000000
vt 0.891951 0.661595 0.000000
vt 0.892160 0.694848 0.000000
vt 0.892330 0.728245 0.000000
vt 0.892420 0.761696 0.000000
vt 0.892432 0.795135 0.000000
vt 0.892405 0.828482 0.000000
vt 0.892470 0.861608 0.000000
vt 0.873104 0.453776 0.000000
vt 0.893726 0.908770 0.000000
vt 0.734823 0.914887 0.000000
vt 0.730564 0.469640 0.000000
# 61 texture coords

g keyboard_2
s 1
f 6/6/1 3/3/2 8/8/3 
f 8/8/4 9/9/5 6/6/6 
f 31/31/7 24/24/8 23/23/9 
f 23/23/10 30/30/11 31/31/12 
f 27/27/13 20/20/14 11/11/15 
f 11/11/16 12/12/17 27/27/18 
f 28/28/19 21/21/20 20/20/21 
f 20/20/22 27/27/23 28/28/24 
f 29/29/25 22/22/26 21/21/27 
f 21/21/28 28/28/29 29/29/30 
f 30/30/31 23/23/32 22/22/33 
f 22/22/34 29/29/35 30/30/36 
f 26/26/37 33/33/38 9/9/39 
f 9/9/40 8/8/41 26/26/42 
f 25/25/43 32/32/44 33/33/45 
f 33/33/46 26/26/47 25/25/48 
f 24/24/49 31/31/50 32/32/51 
f 32/32/52 25/25/53 24/24/54 
f 40/40/55 7/7/56 4/4/57 
f 4/4/58 37/37/59 40/40/60 
f 36/36/61 3/3/62 6/6/63 
f 6/6/64 39/39/65 36/36/66 
f 38/58/67 5/5/68 2/2/69 
f 2/2/70 35/35/71 38/58/72 
f 44/44/73 13/13/74 7/7/75 
f 7/7/76 40/40/77 44/44/78 
f 39/59/79 6/6/80 9/9/81 
f 9/9/82 41/41/83 39/59/84 
f 51/51/85 27/27/86 12/12/87 
f 12/12/88 43/43/89 51/51/90 
f 44/44/91 45/45/92 14/14/93 
f 14/14/94 13/13/95 44/44/96 
f 45/45/97 46/46/98 15/15/99 
f 15/15/100 14/14/101 45/45/102 
f 46/46/103 47/47/104 16/16/105 
f 16/16/106 15/15/107 46/46/108 
f 47/47/109 48/48/110 17/17/111 
f 17/17/112 16/16/113 47/47/114 
f 48/48/115 49/49/116 18/18/117 
f 18/18/118 17/17/119 48/48/120 
f 49/49/121 50/50/122 19/19/123 
f 19/19/124 18/18/125 49/49/126 
f 42/42/127 10/10/128 19/19/129 
f 19/19/130 50/50/131 42/42/132 
f 51/51/133 52/52/134 28/28/135 
f 28/28/136 27/27/137 51/51/138 
f 52/52/139 53/53/140 29/29/141 
f 29/29/142 28/28/143 52/52/144 
f 53/53/145 54/54/146 30/30/147 
f 30/30/148 29/29/149 53/53/150 
f 54/54/151 55/55/152 31/31/153 
f 31/31/154 30/30/155 54/54/156 
f 55/55/157 56/56/158 32/32/159 
f 32/32/160 31/31/161 55/55/162 
f 56/56/163 57/57/164 33/33/165 
f 33/33/166 32/32/167 56/56/168 
f 41/41/169 9/9/170 33/33/171 
f 33/33/172 57/57/173 41/41/174 
f 8/8/175 3/3/176 4/4/177 
f 4/4/178 7/7/179 8/8/180 
f 23/23/181 24/24/182 15/15/183 
f 15/15/184 16/16/185 23/23/186 
f 20/20/187 19/19/188 10/10/189 
f 10/10/190 11/11/191 20/20/192 
f 21/21/193 18/18/194 19/19/195 
f 19/19/196 20/20/197 21/21/198 
f 22/22/199 17/17/200 18/18/201 
f 18/18/202 21/21/203 22/22/204 
f 22/22/205 23/23/206 16/16/207 
f 16/16/208 17/17/209 22/22/210 
f 26/26/211 8/8/212 7/7/213 
f 7/7/214 13/13/215 26/26/216 
f 25/25/217 26/26/218 13/13/219 
f 13/13/220 14/14/221 25/25/222 
f 24/24/223 25/25/224 14/14/225 
f 14/14/226 15/15/227 24/24/228 
f 35/35/229 2/2/230 1/1/231 
f 1/1/232 34/34/233 35/35/234 
f 36/36/235 37/60/236 4/4/237 
f 4/4/238 3/3/239 36/36/240 
f 12/12/241 11/11/242 2/2/243 
f 2/2/244 5/5/245 12/12/246 
f 43/43/247 12/12/248 5/5/249 
f 5/5/250 38/38/251 43/43/252 
f 34/61/253 1/1/254 10/10/255 
f 10/10/256 42/42/257 34/61/258 
f 11/11/259 10/10/260 1/1/261 
f 1/1/262 2/2/263 11/11/264 
# 88 faces

